<svg width="328" height="192" viewBox="0 0 328 192" fill="none" xmlns="http://www.w3.org/2000/svg">
<g clip-path="url(#clip0_1_462)">
<rect width="328" height="192" rx="15" fill="white"/>
<rect width="328" height="192" rx="15" fill="url(#paint0_linear_1_462)"/>
<path d="M66.5 43.5C38.5 37.5 10.5 54 0 63V0H148C132.5 17 94.5 49.5 66.5 43.5Z" fill="url(#paint1_linear_1_462)"/>
<path d="M110 101.87C43.6 94.2704 -0.5 116.037 -9.5 127.87L-19 165.37C3 144.315 57.8 112.238 63 152.37C69.5 202.535 145.5 182.87 149.5 165.37C153.5 147.87 242.5 185.37 228.5 127.87C214.5 70.3704 338 125.37 338 119.37V71.3704C328.167 54.3704 291.8 23.1704 225 34.3704C141.5 48.3704 193 111.37 110 101.87Z" fill="url(#paint2_linear_1_462)"/>
<path d="M25.2963 26.925H23.9248C23.8721 26.6319 23.7739 26.374 23.6303 26.1513C23.4867 25.9286 23.3109 25.7395 23.1028 25.5842C22.8947 25.4289 22.6618 25.3117 22.4039 25.2326C22.1489 25.1534 21.8778 25.1139 21.5906 25.1139C21.0719 25.1139 20.6074 25.2443 20.1972 25.5051C19.7898 25.7659 19.4675 26.1484 19.2301 26.6524C18.9956 27.1565 18.8784 27.7719 18.8784 28.4987C18.8784 29.2313 18.9956 29.8497 19.2301 30.3537C19.4675 30.8578 19.7913 31.2387 20.2016 31.4966C20.6118 31.7545 21.0734 31.8835 21.5862 31.8835C21.8705 31.8835 22.1401 31.8454 22.3951 31.7692C22.653 31.69 22.886 31.5743 23.094 31.4219C23.3021 31.2695 23.4779 31.0834 23.6215 30.8636C23.768 30.6409 23.8692 30.3859 23.9248 30.0987L25.2963 30.1031C25.2231 30.5457 25.0809 30.953 24.8699 31.3252C24.6619 31.6944 24.3937 32.0139 24.0655 32.2835C23.7402 32.5502 23.368 32.7568 22.949 32.9033C22.5299 33.0498 22.0727 33.1231 21.5775 33.1231C20.7979 33.1231 20.1034 32.9385 19.4938 32.5692C18.8843 32.197 18.4037 31.6651 18.052 30.9735C17.7033 30.2819 17.5289 29.457 17.5289 28.4987C17.5289 27.5374 17.7047 26.7125 18.0564 26.0238C18.4081 25.3322 18.8887 24.8018 19.4982 24.4325C20.1078 24.0603 20.8009 23.8742 21.5775 23.8742C22.0551 23.8742 22.5006 23.9431 22.9138 24.0809C23.3299 24.2157 23.7036 24.4149 24.0347 24.6787C24.3659 24.9395 24.6399 25.2589 24.8567 25.637C25.0736 26.0121 25.2201 26.4414 25.2963 26.925ZM26.8162 33V26.248H28.0866V27.3206H28.1569C28.28 26.9572 28.4969 26.6715 28.8075 26.4634C29.1211 26.2524 29.4757 26.1469 29.8713 26.1469C29.9534 26.1469 30.0501 26.1498 30.1614 26.1557C30.2757 26.1615 30.3651 26.1689 30.4296 26.1777V27.4349C30.3768 27.4202 30.283 27.4041 30.1482 27.3865C30.0134 27.366 29.8786 27.3557 29.7438 27.3557C29.4332 27.3557 29.1562 27.4217 28.913 27.5536C28.6727 27.6825 28.4822 27.8627 28.3415 28.0942C28.2009 28.3228 28.1305 28.5837 28.1305 28.8767V33H26.8162ZM34.2353 33.1363C33.57 33.1363 32.9971 32.9941 32.5165 32.7099C32.0388 32.4227 31.6696 32.0197 31.4087 31.501C31.1509 30.9794 31.0219 30.3684 31.0219 29.668C31.0219 28.9763 31.1509 28.3668 31.4087 27.8393C31.6696 27.3118 32.0329 26.9 32.4989 26.6041C32.9678 26.3081 33.5158 26.1601 34.1429 26.1601C34.5239 26.1601 34.8932 26.2231 35.2507 26.3491C35.6082 26.4751 35.9291 26.6729 36.2134 26.9425C36.4977 27.2122 36.7218 27.5624 36.8859 27.9931C37.0501 28.421 37.1321 28.9412 37.1321 29.5537V30.0196H31.7648V29.035H35.8441C35.8441 28.6892 35.7738 28.3829 35.6331 28.1162C35.4925 27.8466 35.2947 27.6342 35.0397 27.4788C34.7877 27.3235 34.4917 27.2459 34.1517 27.2459C33.7825 27.2459 33.4601 27.3367 33.1847 27.5184C32.9121 27.6972 32.7011 27.9316 32.5517 28.2217C32.4051 28.5089 32.3319 28.821 32.3319 29.158V29.9273C32.3319 30.3786 32.411 30.7625 32.5692 31.079C32.7304 31.3955 32.9546 31.6373 33.2418 31.8043C33.529 31.9684 33.8645 32.0505 34.2484 32.0505C34.4975 32.0505 34.7247 32.0153 34.9298 31.945C35.1349 31.8717 35.3122 31.7633 35.4617 31.6197C35.6112 31.4761 35.7254 31.2988 35.8046 31.0878L37.0486 31.312C36.949 31.6783 36.7702 31.9992 36.5123 32.2747C36.2573 32.5472 35.9364 32.7597 35.5496 32.9121C35.1657 33.0615 34.7276 33.1363 34.2353 33.1363ZM41.118 33.1319C40.573 33.1319 40.0865 32.9927 39.6586 32.7143C39.2337 32.4329 38.8996 32.0329 38.6564 31.5142C38.4161 30.9926 38.2959 30.3669 38.2959 29.6372C38.2959 28.9075 38.4175 28.2833 38.6608 27.7646C38.9069 27.2459 39.2439 26.8488 39.6718 26.5733C40.0997 26.2978 40.5847 26.1601 41.1268 26.1601C41.5459 26.1601 41.8829 26.2304 42.1379 26.3711C42.3958 26.5088 42.595 26.67 42.7357 26.8546C42.8793 27.0392 42.9907 27.2019 43.0698 27.3426H43.1489V23.9973H44.4633V33H43.1797V31.9494H43.0698C42.9907 32.093 42.8764 32.2571 42.7269 32.4417C42.5804 32.6264 42.3782 32.7875 42.1203 32.9253C41.8624 33.063 41.5283 33.1319 41.118 33.1319ZM41.4082 32.0109C41.7862 32.0109 42.1056 31.9113 42.3665 31.712C42.6302 31.5098 42.8295 31.2299 42.9643 30.8724C43.102 30.5149 43.1709 30.0987 43.1709 29.624C43.1709 29.1551 43.1035 28.7448 42.9687 28.3932C42.8339 28.0415 42.6361 27.7675 42.3752 27.5711C42.1144 27.3748 41.7921 27.2766 41.4082 27.2766C41.0125 27.2766 40.6829 27.3792 40.4191 27.5843C40.1554 27.7895 39.9561 28.0693 39.8213 28.4239C39.6894 28.7785 39.6235 29.1786 39.6235 29.624C39.6235 30.0753 39.6909 30.4812 39.8257 30.8416C39.9605 31.2021 40.1597 31.4878 40.4235 31.6988C40.6902 31.9069 41.0184 32.0109 41.4082 32.0109ZM46.3392 33V26.248H47.6535V33H46.3392ZM47.003 25.2062C46.7744 25.2062 46.578 25.13 46.4139 24.9776C46.2527 24.8223 46.1721 24.6377 46.1721 24.4237C46.1721 24.2069 46.2527 24.0222 46.4139 23.8699C46.578 23.7145 46.7744 23.6369 47.003 23.6369C47.2315 23.6369 47.4264 23.7145 47.5876 23.8699C47.7517 24.0222 47.8338 24.2069 47.8338 24.4237C47.8338 24.6377 47.7517 24.8223 47.5876 24.9776C47.4264 25.13 47.2315 25.2062 47.003 25.2062ZM52.5736 26.248V27.303H48.8855V26.248H52.5736ZM49.8745 24.6303H51.1889V31.0175C51.1889 31.2724 51.227 31.4644 51.3032 31.5933C51.3794 31.7193 51.4776 31.8058 51.5977 31.8527C51.7208 31.8966 51.8541 31.9186 51.9977 31.9186C52.1032 31.9186 52.1955 31.9113 52.2747 31.8966C52.3538 31.882 52.4153 31.8703 52.4593 31.8615L52.6967 32.9472C52.6205 32.9766 52.512 33.0059 52.3714 33.0352C52.2307 33.0674 52.0549 33.085 51.8439 33.0879C51.4981 33.0938 51.1757 33.0322 50.8768 32.9033C50.5779 32.7743 50.3361 32.5751 50.1515 32.3055C49.9669 32.0358 49.8745 31.6974 49.8745 31.29V24.6303Z" fill="black"/>
<path d="M299.385 40.3474H289.907V23.3155H299.385V40.3474Z" fill="#FF5F00"/>
<path d="M290.509 31.8313C290.509 28.3762 292.127 25.2992 294.646 23.3161C292.739 21.812 290.38 20.9971 287.953 21C281.97 21 277.122 25.8498 277.122 31.8313C277.122 37.8129 281.97 42.6627 287.952 42.6627C290.38 42.6656 292.739 41.8507 294.645 40.3466C292.127 38.3634 290.509 35.2865 290.509 31.8313Z" fill="#EB001B"/>
<path d="M312.17 31.8313C312.17 37.8129 307.322 42.6627 301.34 42.6627C298.912 42.6656 296.553 41.8507 294.646 40.3466C297.165 38.3634 298.783 35.2865 298.783 31.8313C298.783 28.3762 297.165 25.2992 294.646 23.3161C296.553 21.812 298.912 20.9971 301.34 21C307.322 21 312.17 25.8498 312.17 31.8313Z" fill="#F79E1B"/>
</g>
<defs>
<linearGradient id="paint0_linear_1_462" x1="164" y1="0" x2="164" y2="192" gradientUnits="userSpaceOnUse">
<stop stop-color="#9EC7CB"/>
<stop offset="1" stop-color="#FFC16E"/>
</linearGradient>
<linearGradient id="paint1_linear_1_462" x1="74" y1="0" x2="34" y2="63" gradientUnits="userSpaceOnUse">
<stop stop-color="#FFC16E" stop-opacity="0.4"/>
<stop offset="1" stop-color="#9EC7CB"/>
</linearGradient>
<linearGradient id="paint2_linear_1_462" x1="268" y1="57.3704" x2="-8.50001" y2="149" gradientUnits="userSpaceOnUse">
<stop stop-color="#9EC7CB" stop-opacity="0.7"/>
<stop offset="0.9999" stop-color="#FFC16E" stop-opacity="0.5"/>
<stop offset="1" stop-color="#F2C335" stop-opacity="0.7"/>
</linearGradient>
<clipPath id="clip0_1_462">
<rect width="328" height="192" rx="15" fill="white"/>
</clipPath>
</defs>
</svg>
